<svg xmlns="http://www.w3.org/2000/svg" xmlns:xlink="http://www.w3.org/1999/xlink" width="248" zoomAndPan="magnify" viewBox="0 0 186 52.499999" height="70" preserveAspectRatio="xMidYMid meet" version="1.0"><defs><g><g id="id1"/></g></defs><g fill="rgb(38.038635%, 100%, 79.219055%)" fill-opacity="1"><g transform="translate(3.462957, 34.523931)"><g><path d="M 7.640625 -2.296875 L 6.421875 -2.75 C 6.023438 -2.882812 5.769531 -2.96875 5.65625 -3 L 4.65625 -3.359375 L 2.078125 -4.28125 L 1.6875 -4.421875 L 1.6875 -7.546875 L 11.15625 -10.90625 L 11.15625 -7.734375 L 5.59375 -5.984375 L 11.15625 -4.234375 L 11.15625 -1.0625 Z M 7.640625 -2.296875 "/></g></g></g><g fill="rgb(38.038635%, 100%, 79.219055%)" fill-opacity="1"><g transform="translate(16.265365, 34.523931)"><g><path d="M 1.53125 -16.28125 L 6.265625 -16.28125 L 6.265625 0 L 1.53125 0 Z M 7.265625 -8.6875 L 7.828125 -8.6875 C 8.335938 -8.6875 8.710938 -8.707031 8.953125 -8.75 C 9.203125 -8.789062 9.398438 -8.878906 9.546875 -9.015625 C 9.679688 -9.140625 9.769531 -9.320312 9.8125 -9.5625 C 9.851562 -9.8125 9.875 -10.179688 9.875 -10.671875 C 9.875 -11.160156 9.851562 -11.523438 9.8125 -11.765625 C 9.769531 -12.015625 9.679688 -12.210938 9.546875 -12.359375 C 9.398438 -12.484375 9.195312 -12.566406 8.9375 -12.609375 C 8.6875 -12.648438 8.316406 -12.671875 7.828125 -12.671875 L 7.265625 -12.671875 L 7.265625 -16.28125 L 9.234375 -16.28125 C 10.398438 -16.28125 11.347656 -16.164062 12.078125 -15.9375 C 12.816406 -15.707031 13.375 -15.359375 13.75 -14.890625 C 14.113281 -14.453125 14.359375 -13.894531 14.484375 -13.21875 C 14.609375 -12.550781 14.671875 -11.703125 14.671875 -10.671875 C 14.671875 -9.691406 14.613281 -8.878906 14.5 -8.234375 C 14.382812 -7.585938 14.148438 -7.046875 13.796875 -6.609375 C 13.398438 -6.097656 12.832031 -5.710938 12.09375 -5.453125 C 11.363281 -5.191406 10.410156 -5.0625 9.234375 -5.0625 L 7.265625 -5.0625 Z M 7.265625 -8.6875 "/></g></g></g><g fill="rgb(38.038635%, 100%, 79.219055%)" fill-opacity="1"><g transform="translate(31.528865, 34.523931)"><g><path d="M 7.53125 -7.484375 C 7.53125 -7.890625 7.515625 -8.175781 7.484375 -8.34375 C 7.453125 -8.519531 7.359375 -8.648438 7.203125 -8.734375 C 7.054688 -8.816406 6.785156 -8.875 6.390625 -8.90625 C 6.148438 -8.914062 5.640625 -8.921875 4.859375 -8.921875 C 4.097656 -8.921875 3.394531 -8.890625 2.75 -8.828125 L 1.484375 -8.765625 L 1.484375 -11.828125 C 2.972656 -12.117188 4.578125 -12.265625 6.296875 -12.265625 C 7.617188 -12.265625 8.65625 -12.164062 9.40625 -11.96875 C 10.15625 -11.78125 10.722656 -11.484375 11.109375 -11.078125 C 11.429688 -10.703125 11.644531 -10.222656 11.75 -9.640625 C 11.851562 -9.054688 11.90625 -8.242188 11.90625 -7.203125 L 11.90625 0 L 7.53125 0 Z M 4.03125 0.171875 C 2.9375 0.171875 2.128906 -0.128906 1.609375 -0.734375 C 1.085938 -1.347656 0.828125 -2.269531 0.828125 -3.5 C 0.828125 -4.257812 0.878906 -4.867188 0.984375 -5.328125 C 1.097656 -5.796875 1.289062 -6.164062 1.5625 -6.4375 C 1.832031 -6.71875 2.203125 -6.914062 2.671875 -7.03125 C 3.148438 -7.15625 3.773438 -7.21875 4.546875 -7.21875 L 6.53125 -7.171875 L 6.53125 -5.0625 L 6.296875 -5.0625 C 5.929688 -5.0625 5.695312 -5.054688 5.59375 -5.046875 C 5.269531 -5.023438 5.101562 -4.875 5.09375 -4.59375 C 5.070312 -4.5 5.0625 -4.300781 5.0625 -4 C 5.0625 -3.757812 5.070312 -3.578125 5.09375 -3.453125 C 5.125 -3.328125 5.171875 -3.222656 5.234375 -3.140625 C 5.304688 -3.035156 5.425781 -2.972656 5.59375 -2.953125 C 5.8125 -2.921875 6.046875 -2.90625 6.296875 -2.90625 L 6.53125 -2.90625 L 6.53125 -0.5 C 6.1875 -0.226562 5.820312 -0.0507812 5.4375 0.03125 C 5.050781 0.125 4.582031 0.171875 4.03125 0.171875 Z M 4.03125 0.171875 "/></g></g></g><g fill="rgb(38.038635%, 100%, 79.219055%)" fill-opacity="1"><g transform="translate(44.733559, 34.523931)"><g><path d="M 1.34375 -17.59375 L 5.734375 -17.59375 L 5.734375 0 L 1.34375 0 Z M 9.140625 0.171875 C 8.617188 0.171875 8.164062 0.117188 7.78125 0.015625 C 7.394531 -0.078125 7.039062 -0.238281 6.71875 -0.46875 L 6.71875 -3.484375 L 6.984375 -3.484375 C 7.328125 -3.484375 7.570312 -3.5 7.71875 -3.53125 C 7.875 -3.570312 7.992188 -3.664062 8.078125 -3.8125 C 8.148438 -3.988281 8.195312 -4.238281 8.21875 -4.5625 C 8.226562 -4.800781 8.234375 -5.289062 8.234375 -6.03125 C 8.234375 -6.78125 8.226562 -7.269531 8.21875 -7.5 C 8.195312 -7.851562 8.148438 -8.109375 8.078125 -8.265625 C 8.015625 -8.421875 7.894531 -8.515625 7.71875 -8.546875 C 7.5 -8.578125 7.253906 -8.59375 6.984375 -8.59375 L 6.71875 -8.59375 L 6.71875 -11.59375 C 7.039062 -11.851562 7.378906 -12.023438 7.734375 -12.109375 C 8.097656 -12.191406 8.566406 -12.234375 9.140625 -12.234375 C 10.398438 -12.234375 11.304688 -11.773438 11.859375 -10.859375 C 12.410156 -9.910156 12.6875 -8.285156 12.6875 -5.984375 C 12.6875 -3.671875 12.410156 -2.054688 11.859375 -1.140625 C 11.578125 -0.679688 11.207031 -0.347656 10.75 -0.140625 C 10.300781 0.0664062 9.765625 0.171875 9.140625 0.171875 Z M 9.140625 0.171875 "/></g></g></g><g fill="rgb(38.038635%, 100%, 79.219055%)" fill-opacity="1"><g transform="translate(58.411546, 34.523931)"><g><path d="M 1.34375 -17.59375 L 5.734375 -17.59375 L 5.734375 0 L 1.34375 0 Z M 1.34375 -17.59375 "/></g></g></g><g fill="rgb(38.038635%, 100%, 79.219055%)" fill-opacity="1"><g transform="translate(65.487187, 34.523931)"><g><path d="M 8.09375 -6.015625 C 8.09375 -6.816406 8.085938 -7.351562 8.078125 -7.625 C 8.054688 -8 8.003906 -8.285156 7.921875 -8.484375 C 7.847656 -8.679688 7.722656 -8.804688 7.546875 -8.859375 C 7.359375 -8.898438 7.097656 -8.921875 6.765625 -8.921875 L 6.4375 -8.921875 L 6.4375 -12.265625 L 6.765625 -12.265625 C 8.140625 -12.265625 9.210938 -12.15625 9.984375 -11.9375 C 10.765625 -11.726562 11.34375 -11.378906 11.71875 -10.890625 C 12.0625 -10.441406 12.285156 -9.851562 12.390625 -9.125 C 12.492188 -8.394531 12.546875 -7.359375 12.546875 -6.015625 C 12.546875 -4.765625 12.507812 -3.796875 12.4375 -3.109375 C 12.363281 -2.421875 12.195312 -1.859375 11.9375 -1.421875 C 11.632812 -0.929688 11.179688 -0.5625 10.578125 -0.3125 C 9.984375 -0.0703125 9.15625 0.078125 8.09375 0.140625 Z M 6.765625 0.1875 C 5.390625 0.1875 4.316406 0.0859375 3.546875 -0.109375 C 2.773438 -0.316406 2.203125 -0.664062 1.828125 -1.15625 C 1.472656 -1.601562 1.242188 -2.1875 1.140625 -2.90625 C 1.046875 -3.632812 1 -4.671875 1 -6.015625 C 1 -7.242188 1.035156 -8.203125 1.109375 -8.890625 C 1.191406 -9.585938 1.367188 -10.164062 1.640625 -10.625 C 1.921875 -11.132812 2.359375 -11.507812 2.953125 -11.75 C 3.554688 -12 4.382812 -12.15625 5.4375 -12.21875 L 5.4375 -6.015625 C 5.4375 -5.210938 5.445312 -4.679688 5.46875 -4.421875 C 5.476562 -4.046875 5.523438 -3.765625 5.609375 -3.578125 C 5.691406 -3.390625 5.828125 -3.269531 6.015625 -3.21875 C 6.171875 -3.164062 6.421875 -3.140625 6.765625 -3.140625 L 7.09375 -3.140625 L 7.09375 0.1875 Z M 6.765625 0.1875 "/></g></g></g><g fill="rgb(38.038635%, 100%, 79.219055%)" fill-opacity="1"><g transform="translate(79.023182, 34.523931)"><g><path d="M 6.9375 -16.421875 C 7.5625 -16.453125 8.082031 -16.46875 8.5 -16.46875 C 9.914062 -16.46875 11.21875 -16.375 12.40625 -16.1875 C 13 -16.125 13.570312 -16.03125 14.125 -15.90625 L 14.125 -12.515625 C 13.46875 -12.578125 12.972656 -12.632812 12.640625 -12.6875 C 12.367188 -12.707031 11.9375 -12.75 11.34375 -12.8125 C 10.738281 -12.84375 10.34375 -12.859375 10.15625 -12.859375 C 9.195312 -12.859375 8.488281 -12.835938 8.03125 -12.796875 C 7.582031 -12.753906 7.21875 -12.65625 6.9375 -12.5 Z M 8.5 0.1875 C 6.914062 0.1875 5.65625 0.0703125 4.71875 -0.15625 C 3.78125 -0.394531 3.050781 -0.816406 2.53125 -1.421875 C 2.007812 -2.015625 1.640625 -2.835938 1.421875 -3.890625 C 1.210938 -4.953125 1.109375 -6.367188 1.109375 -8.140625 C 1.109375 -9.640625 1.175781 -10.867188 1.3125 -11.828125 C 1.457031 -12.796875 1.707031 -13.585938 2.0625 -14.203125 C 2.425781 -14.835938 2.914062 -15.316406 3.53125 -15.640625 C 4.144531 -15.972656 4.945312 -16.203125 5.9375 -16.328125 L 5.9375 -8.140625 C 5.9375 -7.023438 5.96875 -6.171875 6.03125 -5.578125 C 6.09375 -4.984375 6.210938 -4.53125 6.390625 -4.21875 C 6.578125 -3.882812 6.847656 -3.65625 7.203125 -3.53125 C 7.554688 -3.40625 8.066406 -3.34375 8.734375 -3.34375 L 8.734375 0.1875 Z M 9.734375 -6.25 L 8.046875 -6.25 L 8.046875 -9.6875 L 14.203125 -9.6875 L 14.203125 -0.40625 C 13.460938 -0.226562 12.539062 -0.09375 11.4375 0 C 10.894531 0.0820312 10.328125 0.128906 9.734375 0.140625 Z M 9.734375 -6.25 "/></g></g></g><g fill="rgb(38.038635%, 100%, 79.219055%)" fill-opacity="1"><g transform="translate(94.641638, 34.523931)"><g><path d="M 8.09375 -6.015625 C 8.09375 -6.816406 8.085938 -7.351562 8.078125 -7.625 C 8.054688 -8 8.003906 -8.285156 7.921875 -8.484375 C 7.847656 -8.679688 7.722656 -8.804688 7.546875 -8.859375 C 7.359375 -8.898438 7.097656 -8.921875 6.765625 -8.921875 L 6.4375 -8.921875 L 6.4375 -12.265625 L 6.765625 -12.265625 C 8.140625 -12.265625 9.210938 -12.15625 9.984375 -11.9375 C 10.765625 -11.726562 11.34375 -11.378906 11.71875 -10.890625 C 12.0625 -10.441406 12.285156 -9.851562 12.390625 -9.125 C 12.492188 -8.394531 12.546875 -7.359375 12.546875 -6.015625 C 12.546875 -4.765625 12.507812 -3.796875 12.4375 -3.109375 C 12.363281 -2.421875 12.195312 -1.859375 11.9375 -1.421875 C 11.632812 -0.929688 11.179688 -0.5625 10.578125 -0.3125 C 9.984375 -0.0703125 9.15625 0.078125 8.09375 0.140625 Z M 6.765625 0.1875 C 5.390625 0.1875 4.316406 0.0859375 3.546875 -0.109375 C 2.773438 -0.316406 2.203125 -0.664062 1.828125 -1.15625 C 1.472656 -1.601562 1.242188 -2.1875 1.140625 -2.90625 C 1.046875 -3.632812 1 -4.671875 1 -6.015625 C 1 -7.242188 1.035156 -8.203125 1.109375 -8.890625 C 1.191406 -9.585938 1.367188 -10.164062 1.640625 -10.625 C 1.921875 -11.132812 2.359375 -11.507812 2.953125 -11.75 C 3.554688 -12 4.382812 -12.15625 5.4375 -12.21875 L 5.4375 -6.015625 C 5.4375 -5.210938 5.445312 -4.679688 5.46875 -4.421875 C 5.476562 -4.046875 5.523438 -3.765625 5.609375 -3.578125 C 5.691406 -3.390625 5.828125 -3.269531 6.015625 -3.21875 C 6.171875 -3.164062 6.421875 -3.140625 6.765625 -3.140625 L 7.09375 -3.140625 L 7.09375 0.1875 Z M 6.765625 0.1875 "/></g></g></g><g fill="rgb(38.038635%, 100%, 79.219055%)" fill-opacity="1"><g transform="translate(108.177633, 34.523931)"><g><path d="M 7.953125 -7.359375 C 7.953125 -7.742188 7.910156 -8.035156 7.828125 -8.234375 C 7.765625 -8.390625 7.664062 -8.488281 7.53125 -8.53125 C 7.40625 -8.570312 7.175781 -8.59375 6.84375 -8.59375 L 6.71875 -8.59375 L 6.71875 -11.546875 C 7.332031 -12.003906 8.1875 -12.234375 9.28125 -12.234375 C 9.769531 -12.234375 10.195312 -12.175781 10.5625 -12.0625 C 10.925781 -11.945312 11.234375 -11.738281 11.484375 -11.4375 C 12.046875 -10.738281 12.328125 -9.441406 12.328125 -7.546875 L 12.328125 0 L 7.953125 0 Z M 14.5625 -7.359375 C 14.5625 -7.742188 14.519531 -8.035156 14.4375 -8.234375 C 14.375 -8.390625 14.273438 -8.488281 14.140625 -8.53125 C 14.003906 -8.570312 13.773438 -8.59375 13.453125 -8.59375 L 13.328125 -8.59375 C 13.296875 -9 13.25 -9.425781 13.1875 -9.875 C 13.0625 -10.5 12.925781 -10.957031 12.78125 -11.25 C 13.445312 -11.90625 14.394531 -12.234375 15.625 -12.234375 C 16.96875 -12.234375 17.882812 -11.800781 18.375 -10.9375 C 18.59375 -10.5625 18.738281 -10.097656 18.8125 -9.546875 C 18.894531 -9.003906 18.9375 -8.335938 18.9375 -7.546875 L 18.9375 0 L 14.5625 0 Z M 1.34375 -12.078125 L 5.734375 -12.078125 L 5.734375 0 L 1.34375 0 Z M 1.34375 -12.078125 "/></g></g></g><g fill="rgb(38.038635%, 100%, 79.219055%)" fill-opacity="1"><g transform="translate(128.457968, 34.523931)"><g><path d="M 6.34375 -7.21875 L 8 -7.21875 C 8 -8.101562 7.910156 -8.671875 7.734375 -8.921875 C 7.640625 -9.066406 7.515625 -9.15625 7.359375 -9.1875 C 7.203125 -9.226562 6.972656 -9.25 6.671875 -9.25 L 6.34375 -9.25 L 6.34375 -12.265625 L 6.671875 -12.265625 C 8.035156 -12.265625 9.082031 -12.148438 9.8125 -11.921875 C 10.539062 -11.703125 11.082031 -11.34375 11.4375 -10.84375 C 11.75 -10.394531 11.941406 -9.820312 12.015625 -9.125 C 12.085938 -8.4375 12.125 -7.398438 12.125 -6.015625 L 12.125 -5.0625 L 6.34375 -5.0625 Z M 7.15625 0.1875 C 5.695312 0.1875 4.550781 0.0664062 3.71875 -0.171875 C 2.894531 -0.421875 2.28125 -0.8125 1.875 -1.34375 C 1.507812 -1.820312 1.269531 -2.410156 1.15625 -3.109375 C 1.050781 -3.816406 1 -4.785156 1 -6.015625 C 1 -7.148438 1.035156 -8.050781 1.109375 -8.71875 C 1.191406 -9.394531 1.359375 -9.96875 1.609375 -10.4375 C 1.890625 -10.957031 2.328125 -11.363281 2.921875 -11.65625 C 3.515625 -11.945312 4.320312 -12.132812 5.34375 -12.21875 L 5.34375 -5.0625 C 5.34375 -4.53125 5.363281 -4.148438 5.40625 -3.921875 C 5.457031 -3.691406 5.570312 -3.519531 5.75 -3.40625 C 5.9375 -3.28125 6.226562 -3.210938 6.625 -3.203125 C 7.132812 -3.160156 7.671875 -3.140625 8.234375 -3.140625 C 9.242188 -3.140625 9.976562 -3.164062 10.4375 -3.21875 L 11.640625 -3.3125 L 11.640625 -0.265625 C 11.015625 -0.0664062 10.148438 0.0625 9.046875 0.125 C 8.503906 0.164062 7.875 0.1875 7.15625 0.1875 Z M 7.15625 0.1875 "/></g></g></g><g fill="rgb(38.038635%, 100%, 79.219055%)" fill-opacity="1"><g transform="translate(141.638996, 34.523931)"><g><path d="M 10.296875 -8.78125 C 9.992188 -8.800781 9.582031 -8.84375 9.0625 -8.90625 C 8.082031 -9 7.296875 -9.046875 6.703125 -9.046875 L 5.921875 -9.046875 L 5.921875 -12.265625 C 7.035156 -12.265625 8.097656 -12.1875 9.109375 -12.03125 L 10.296875 -11.8125 Z M 6.859375 -3.671875 C 6.859375 -3.910156 6.816406 -4.0625 6.734375 -4.125 C 6.660156 -4.1875 6.5 -4.234375 6.25 -4.265625 L 3.6875 -4.609375 C 3.0625 -4.710938 2.554688 -4.863281 2.171875 -5.0625 C 1.785156 -5.269531 1.492188 -5.546875 1.296875 -5.890625 C 1.109375 -6.191406 0.984375 -6.554688 0.921875 -6.984375 C 0.859375 -7.410156 0.828125 -7.9375 0.828125 -8.5625 C 0.828125 -9.863281 1.210938 -10.8125 1.984375 -11.40625 C 2.628906 -11.882812 3.609375 -12.160156 4.921875 -12.234375 L 4.921875 -8.515625 C 4.921875 -8.285156 4.953125 -8.132812 5.015625 -8.0625 C 5.078125 -7.988281 5.273438 -7.925781 5.609375 -7.875 L 8.453125 -7.5 C 8.859375 -7.457031 9.210938 -7.375 9.515625 -7.25 C 9.816406 -7.132812 10.070312 -6.957031 10.28125 -6.71875 C 10.726562 -6.21875 10.953125 -5.25 10.953125 -3.8125 C 10.953125 -2.289062 10.566406 -1.234375 9.796875 -0.640625 C 9.117188 -0.128906 8.140625 0.140625 6.859375 0.171875 Z M 5.875 0.1875 C 4.613281 0.175781 3.507812 0.0976562 2.5625 -0.046875 L 1.203125 -0.265625 L 1.203125 -3.296875 C 1.835938 -3.234375 2.691406 -3.164062 3.765625 -3.09375 C 4.359375 -3.0625 4.785156 -3.046875 5.046875 -3.046875 L 5.875 -3.046875 Z M 5.875 0.1875 "/></g></g></g><g fill="rgb(38.038635%, 100%, 79.219055%)" fill-opacity="1"><g transform="translate(153.423834, 34.523931)"><g/></g></g><g fill="rgb(38.038635%, 100%, 79.219055%)" fill-opacity="1"><g transform="translate(159.576564, 34.523931)"><g><path d="M 6.609375 -17.59375 L 10.421875 -17.59375 L 3.53125 1.296875 L -0.265625 1.296875 Z M 6.609375 -17.59375 "/></g></g></g><g fill="rgb(38.038635%, 100%, 79.219055%)" fill-opacity="1"><g transform="translate(169.728558, 34.523931)"><g><path d="M 1.65625 -4.234375 L 7.21875 -5.984375 L 1.65625 -7.734375 L 1.65625 -10.90625 L 11.125 -7.546875 L 11.125 -4.421875 L 10.671875 -4.265625 L 9.640625 -3.90625 C 9.546875 -3.851562 9.445312 -3.816406 9.34375 -3.796875 C 9.25 -3.773438 9.164062 -3.75 9.09375 -3.71875 C 8.96875 -3.664062 8.820312 -3.613281 8.65625 -3.5625 C 8.488281 -3.507812 8.3125 -3.441406 8.125 -3.359375 C 7.957031 -3.296875 7.597656 -3.171875 7.046875 -2.984375 L 6.390625 -2.75 L 5.15625 -2.296875 L 1.65625 -1.0625 Z M 1.65625 -4.234375 "/></g></g></g></svg>