<svg xmlns="http://www.w3.org/2000/svg" xmlns:xlink="http://www.w3.org/1999/xlink" width="248" zoomAndPan="magnify" viewBox="0 0 186 52.499999" height="70" preserveAspectRatio="xMidYMid meet" version="1.0"><defs><g/><clipPath id="id1"><path d="M 98 3 L 123.347656 3 L 123.347656 30 L 98 30 Z M 98 3 " clip-rule="nonzero"/></clipPath><clipPath id="id2"><path d="M 62.429688 3 L 87 3 L 87 30 L 62.429688 30 Z M 62.429688 3 " clip-rule="nonzero"/></clipPath></defs><path fill="rgb(100%, 35.688782%, 0%)" d="M 121.511719 15.5 L 110.609375 4.496094 C 110.3125 4.195312 109.910156 4.027344 109.492188 4.027344 L 100.578125 4.027344 C 99.941406 4.027344 99.363281 4.417969 99.121094 5.011719 C 98.875 5.605469 99.011719 6.289062 99.460938 6.746094 L 109.25 16.625 L 99.460938 26.503906 C 99.011719 26.960938 98.875 27.640625 99.121094 28.238281 C 99.363281 28.832031 99.941406 29.21875 100.578125 29.21875 L 109.492188 29.21875 C 109.910156 29.21875 110.3125 29.050781 110.609375 28.753906 L 121.511719 17.75 C 121.804688 17.449219 121.972656 17.046875 121.972656 16.625 C 121.972656 16.203125 121.804688 15.796875 121.511719 15.5 Z M 121.511719 15.5 " fill-opacity="1" fill-rule="nonzero"/><path fill="rgb(100%, 59.21936%, 0%)" d="M 113.320312 17.75 C 113.617188 17.449219 113.78125 17.046875 113.78125 16.625 C 113.78125 16.203125 113.617188 15.796875 113.320312 15.5 L 102.417969 4.496094 C 102.125 4.195312 101.722656 4.027344 101.304688 4.027344 L 100.578125 4.027344 C 99.941406 4.027344 99.363281 4.417969 99.121094 5.011719 C 98.875 5.605469 99.011719 6.289062 99.460938 6.746094 L 109.25 16.625 L 99.460938 26.503906 C 99.011719 26.960938 98.875 27.640625 99.121094 28.238281 C 99.363281 28.832031 99.941406 29.21875 100.578125 29.21875 L 101.304688 29.21875 C 101.722656 29.21875 102.125 29.050781 102.417969 28.753906 Z M 113.320312 17.75 " fill-opacity="1" fill-rule="nonzero"/><path fill="rgb(6.669617%, 66.668701%, 65.098572%)" d="M 86.117188 5.011719 C 85.871094 4.417969 85.296875 4.027344 84.660156 4.027344 L 75.742188 4.027344 C 75.324219 4.027344 74.925781 4.195312 74.628906 4.496094 L 63.726562 15.5 C 63.429688 15.796875 63.265625 16.203125 63.265625 16.625 C 63.265625 17.046875 63.429688 17.449219 63.726562 17.75 L 74.628906 28.753906 C 74.925781 29.050781 75.324219 29.21875 75.742188 29.21875 L 84.660156 29.21875 C 85.296875 29.21875 85.871094 28.832031 86.117188 28.238281 C 86.359375 27.640625 86.222656 26.960938 85.773438 26.503906 L 75.988281 16.625 L 85.773438 6.746094 C 86.222656 6.289062 86.359375 5.605469 86.117188 5.011719 Z M 86.117188 5.011719 " fill-opacity="1" fill-rule="nonzero"/><path fill="rgb(12.548828%, 82.749939%, 59.21936%)" d="M 86.117188 28.238281 C 86.359375 27.640625 86.222656 26.960938 85.773438 26.503906 L 75.988281 16.625 L 85.773438 6.746094 C 86.226562 6.289062 86.359375 5.605469 86.117188 5.011719 C 85.871094 4.417969 85.296875 4.027344 84.660156 4.027344 L 83.929688 4.027344 C 83.511719 4.027344 83.113281 4.195312 82.816406 4.496094 L 71.914062 15.5 C 71.617188 15.796875 71.453125 16.203125 71.453125 16.625 C 71.453125 17.046875 71.617188 17.449219 71.914062 17.75 L 82.816406 28.753906 C 83.113281 29.050781 83.511719 29.21875 83.929688 29.21875 L 84.660156 29.21875 C 85.296875 29.21875 85.871094 28.832031 86.117188 28.238281 Z M 86.117188 28.238281 " fill-opacity="1" fill-rule="nonzero"/><g clip-path="url(#id1)"><path stroke-linecap="round" transform="matrix(0.467905, 0, 0, 0.472293, 61.327987, -15.255383)" fill="none" stroke-linejoin="round" d="M 129.876108 65.119277 L 106.584116 41.820382 C 105.949639 41.183529 105.089756 40.827884 104.196478 40.827884 L 85.137117 40.827884 C 83.776331 40.827884 82.549118 41.654966 82.031518 42.91213 C 81.50557 44.169295 81.797764 45.616688 82.757828 46.584374 L 103.678879 67.501272 L 82.757828 88.418171 C 81.797764 89.385857 81.50557 90.824979 82.031518 92.090414 C 82.549118 93.347579 83.776331 94.16639 85.137117 94.16639 L 104.196478 94.16639 C 105.089756 94.16639 105.949639 93.810744 106.584116 93.182162 L 129.876108 69.883268 C 130.510585 69.246415 130.869566 68.394521 130.869566 67.501272 C 130.869566 66.608024 130.510585 65.747859 129.876108 65.119277 Z M 129.876108 65.119277 " stroke="rgb(19.999695%, 21.179199%, 22.749329%)" stroke-width="3" stroke-opacity="1" stroke-miterlimit="10"/></g><path stroke-linecap="round" transform="matrix(0.467905, 0, 0, 0.472293, 61.327987, -15.255383)" fill="none" stroke-linejoin="round" d="M 108.671212 62.497427 L 87.750162 83.422597 " stroke="rgb(19.999695%, 21.179199%, 22.749329%)" stroke-width="3" stroke-opacity="1" stroke-miterlimit="10"/><g clip-path="url(#id2)"><path stroke-linecap="round" transform="matrix(0.467905, 0, 0, 0.472293, 61.327987, -15.255383)" fill="none" stroke-linejoin="round" d="M 52.979141 42.91213 C 52.453193 41.654966 51.225981 40.827884 49.865194 40.827884 L 30.805833 40.827884 C 29.912556 40.827884 29.061021 41.183529 28.426543 41.820382 L 5.126203 65.119277 C 4.491726 65.747859 4.141094 66.608024 4.141094 67.501272 C 4.141094 68.394521 4.491726 69.246415 5.126203 69.883268 L 28.426543 93.182162 C 29.061021 93.810744 29.912556 94.16639 30.805833 94.16639 L 49.865194 94.16639 C 51.225981 94.16639 52.453193 93.347579 52.979141 92.090414 C 53.496741 90.824979 53.204548 89.385857 52.244483 88.418171 L 31.331781 67.501272 L 52.244483 46.584374 C 53.204548 45.616688 53.496741 44.169295 52.979141 42.91213 Z M 52.979141 42.91213 " stroke="rgb(19.999695%, 21.179199%, 22.749329%)" stroke-width="3" stroke-opacity="1" stroke-miterlimit="10"/></g><path stroke-linecap="round" transform="matrix(0.467905, 0, 0, 0.472293, 61.327987, -15.255383)" fill="none" stroke-linejoin="round" d="M 26.331099 72.496846 L 47.243801 51.579948 " stroke="rgb(19.999695%, 21.179199%, 22.749329%)" stroke-width="3" stroke-opacity="1" stroke-miterlimit="10"/><path stroke-linecap="round" transform="matrix(0.467905, 0, 0, 0.472293, 61.327987, -15.255383)" fill="none" stroke-linejoin="round" d="M 57.044804 77.955586 L 77.957507 57.038688 " stroke="rgb(19.999695%, 21.179199%, 22.749329%)" stroke-width="3" stroke-opacity="1" stroke-miterlimit="10"/><g fill="rgb(100%, 35.688782%, 0%)" fill-opacity="1"><g transform="translate(18.600659, 49.961602)"><g><path d="M 11.980469 -13.726562 C 11.535156 -15.183594 10.199219 -16.179688 8.675781 -16.179688 L 2.25 -16.179688 C 1.378906 -16.179688 0.667969 -15.449219 0.667969 -14.578125 L 0.667969 -1.640625 C 0.667969 -0.75 1.378906 -0.0390625 2.25 -0.0390625 L 4.359375 -0.0390625 C 5.230469 -0.0390625 5.941406 -0.75 5.941406 -1.640625 L 5.941406 -5.351562 L 8.757812 -5.351562 C 9.609375 -5.351562 10.421875 -5.71875 10.96875 -6.367188 C 11.636719 -7.175781 12.328125 -8.574219 12.328125 -10.90625 C 12.328125 -12.082031 12.183594 -13.035156 11.980469 -13.726562 Z M 7.785156 -10.949219 L 7.785156 -10.664062 C 7.785156 -9.976562 7.257812 -9.449219 6.589844 -9.449219 L 6.203125 -9.449219 C 6.042969 -9.449219 5.941406 -9.550781 5.941406 -9.691406 L 5.941406 -11.878906 C 5.941406 -12.023438 6.042969 -12.164062 6.203125 -12.164062 L 6.589844 -12.164062 C 7.257812 -12.164062 7.785156 -11.597656 7.785156 -10.949219 Z M 7.785156 -10.949219 "/></g></g></g><g fill="rgb(100%, 35.688782%, 0%)" fill-opacity="1"><g transform="translate(32.525485, 49.961602)"><g><path d="M 15.46875 -1.703125 L 12.023438 -14.820312 C 11.960938 -15.0625 11.902344 -15.429688 11.617188 -15.753906 C 11.3125 -16.058594 10.929688 -16.136719 10.644531 -16.136719 L 5.332031 -16.136719 C 5.027344 -16.136719 4.746094 -16.035156 4.542969 -15.875 C 4.339844 -15.734375 4.117188 -15.488281 4.035156 -15.125 L 0.386719 -1.722656 C 0.222656 -1.074219 0.527344 -0.386719 1.136719 -0.121094 C 1.296875 -0.0390625 1.460938 -0.0195312 1.664062 -0.0195312 L 4.417969 -0.0195312 C 5.171875 -0.0195312 5.472656 -0.488281 5.777344 -1.257812 L 6.367188 -2.839844 L 9.46875 -2.839844 L 10.078125 -1.257812 C 10.378906 -0.488281 10.683594 0 11.433594 0 L 14.191406 0 C 14.414062 0 14.636719 -0.0625 14.800781 -0.164062 C 15.347656 -0.445312 15.609375 -1.09375 15.46875 -1.703125 Z M 8.878906 -7.523438 L 6.996094 -7.523438 C 6.792969 -7.523438 6.628906 -7.703125 6.730469 -7.90625 L 7.257812 -9.285156 L 7.664062 -10.339844 C 7.746094 -10.605469 8.109375 -10.605469 8.191406 -10.339844 L 8.617188 -9.285156 L 9.144531 -7.90625 C 9.203125 -7.703125 9.0625 -7.523438 8.878906 -7.523438 Z M 8.878906 -7.523438 "/></g></g></g><g fill="rgb(100%, 35.688782%, 0%)" fill-opacity="1"><g transform="translate(49.632384, 49.961602)"><g><path d="M 11.230469 -8.109375 C 11.414062 -8.292969 12.710938 -9.304688 12.710938 -11.921875 C 12.710938 -12.957031 12.367188 -14.03125 11.71875 -14.78125 C 11.007812 -15.609375 10.078125 -16.160156 8.757812 -16.160156 L 2.109375 -16.160156 C 1.519531 -16.160156 1.175781 -15.855469 0.914062 -15.511719 C 0.648438 -15.144531 0.667969 -14.761719 0.667969 -14.761719 L 0.667969 -1.441406 C 0.667969 -1.359375 0.667969 -0.953125 0.992188 -0.589844 C 1.136719 -0.40625 1.480469 -0.0625 2.109375 -0.0625 L 4.683594 -0.0625 L 8.820312 -0.0390625 C 9.953125 -0.0390625 10.949219 -0.589844 11.65625 -1.398438 C 12.304688 -2.148438 12.730469 -3.386719 12.730469 -4.277344 C 12.792969 -6.546875 11.578125 -7.824219 11.230469 -8.109375 Z M 7.886719 -11.980469 L 7.886719 -11.71875 C 7.886719 -11.273438 7.542969 -10.929688 7.074219 -10.929688 L 5.859375 -10.929688 C 5.71875 -10.929688 5.636719 -11.007812 5.636719 -11.128906 L 5.636719 -12.550781 C 5.636719 -12.671875 5.71875 -12.773438 5.859375 -12.773438 L 7.074219 -12.773438 C 7.542969 -12.773438 7.886719 -12.40625 7.886719 -11.980469 Z M 7.886719 -5.191406 L 7.886719 -4.601562 C 7.886719 -4.15625 7.542969 -3.792969 7.074219 -3.792969 L 5.859375 -3.792969 C 5.71875 -3.792969 5.636719 -3.914062 5.636719 -4.015625 L 5.636719 -5.796875 C 5.636719 -5.921875 5.71875 -6 5.859375 -6 L 7.074219 -6 C 7.542969 -6 7.886719 -5.65625 7.886719 -5.191406 Z M 7.886719 -5.191406 "/></g></g></g><g fill="rgb(100%, 35.688782%, 0%)" fill-opacity="1"><g transform="translate(63.962579, 49.961602)"><g><path d="M 10.054688 -5.472656 L 6.101562 -5.472656 L 6.101562 -14.578125 C 6.101562 -15.449219 5.332031 -16.21875 4.5 -16.21875 L 2.148438 -16.21875 C 1.277344 -16.21875 0.667969 -15.449219 0.667969 -14.578125 L 0.667969 -1.339844 C 0.667969 -0.609375 1.136719 0 2.007812 0 L 10.054688 0 C 10.804688 0 11.414062 -0.609375 11.414062 -1.339844 L 11.414062 -4.054688 C 11.414062 -4.804688 10.804688 -5.472656 10.054688 -5.472656 Z M 10.054688 -5.472656 "/></g></g></g><g fill="rgb(100%, 35.688782%, 0%)" fill-opacity="1"><g transform="translate(77.299638, 49.961602)"><g><path d="M 6.953125 -16.460938 C 3.628906 -16.460938 0.34375 -13.785156 0.34375 -10.441406 L 0.34375 -5.820312 C 0.34375 -2.351562 3.628906 0.34375 6.953125 0.34375 C 10.359375 0.34375 13.5625 -2.351562 13.5625 -5.820312 L 13.5625 -10.441406 C 13.5625 -13.785156 10.359375 -16.460938 6.953125 -16.460938 Z M 8.3125 -6.023438 C 8.3125 -5.332031 7.683594 -4.722656 6.953125 -4.722656 C 6.203125 -4.722656 5.617188 -5.332031 5.617188 -6.023438 L 5.617188 -10.078125 C 5.617188 -10.804688 6.203125 -11.414062 6.953125 -11.414062 C 7.683594 -11.414062 8.3125 -10.804688 8.3125 -10.078125 Z M 8.3125 -6.023438 "/></g></g></g><path stroke-linecap="butt" transform="matrix(0.742924, 0, 0, 0.742924, 18.822022, 33.85357)" fill="none" stroke-linejoin="miter" d="M 16.770518 2.526365 C 16.171113 0.559897 14.367641 -0.780877 12.322304 -0.780877 L 3.672997 -0.780877 C 2.500478 -0.780877 1.538275 0.207615 1.538275 1.380135 L 1.538275 18.789164 C 1.538275 19.987974 2.500478 20.944918 3.672997 20.944918 L 6.512283 20.944918 C 7.684803 20.944918 8.63649 19.987974 8.63649 18.789164 L 8.63649 13.799382 L 12.427462 13.799382 C 13.578951 13.799382 14.667343 13.305136 15.403455 12.432318 C 16.302562 11.338667 17.227959 9.456326 17.227959 6.317338 C 17.227959 4.734699 17.043931 3.451762 16.770518 2.526365 Z M 11.123494 6.264758 L 11.123494 6.648588 C 11.123494 7.573985 10.408415 8.278548 9.509307 8.278548 L 8.988772 8.278548 C 8.773196 8.278548 8.63649 8.1471 8.63649 7.952556 L 8.63649 5.008111 C 8.63649 4.818826 8.773196 4.624282 8.988772 4.624282 L 9.509307 4.624282 C 10.408415 4.624282 11.123494 5.391941 11.123494 6.264758 Z M 40.205143 18.710295 L 35.567642 1.054143 C 35.488773 0.728151 35.399389 0.233905 35.020817 -0.207762 C 34.615956 -0.612623 34.09542 -0.717782 33.706333 -0.717782 L 26.560797 -0.717782 C 26.150678 -0.717782 25.766848 -0.586333 25.498693 -0.3655 C 25.225281 -0.176214 24.92032 0.155036 24.815162 0.638766 L 19.904249 18.684005 C 19.683415 19.556823 20.088276 20.48222 20.908514 20.834501 C 21.129348 20.944918 21.350181 20.971208 21.623594 20.971208 L 25.335697 20.971208 C 26.339963 20.971208 26.75534 20.345513 27.160201 19.3097 L 27.95415 17.180235 L 32.128952 17.180235 L 32.94919 19.3097 C 33.354051 20.345513 33.769428 20.997497 34.773694 20.997497 L 38.485797 20.997497 C 38.7855 20.997497 39.085202 20.918628 39.306036 20.781922 C 40.042147 20.398093 40.399686 19.525275 40.205143 18.710295 Z M 31.335003 10.870711 L 28.800678 10.870711 C 28.527265 10.870711 28.306432 10.634104 28.443138 10.360691 L 29.15296 8.499381 L 29.699785 7.079738 C 29.810202 6.727457 30.29919 6.727457 30.409606 7.079738 L 30.982722 8.499381 L 31.687285 10.360691 C 31.77667 10.634104 31.582126 10.870711 31.335003 10.870711 Z M 57.530045 10.087278 C 57.77191 9.840155 59.517545 8.473092 59.517545 4.955532 C 59.517545 3.562179 59.060104 2.116246 58.182029 1.106722 C 57.230342 -0.0132183 55.973695 -0.754587 54.196513 -0.754587 L 45.247504 -0.754587 C 44.453556 -0.754587 43.996115 -0.33921 43.638576 0.123488 C 43.281036 0.612476 43.307326 1.133012 43.307326 1.133012 L 43.307326 19.062577 C 43.307326 19.172993 43.307326 19.714561 43.748992 20.208807 C 43.938278 20.45593 44.400976 20.918628 45.247504 20.918628 L 48.712485 20.918628 L 54.28064 20.944918 C 55.810699 20.944918 57.146215 20.208807 58.10316 19.115156 C 58.975977 18.11089 59.549093 16.444124 59.549093 15.245314 C 59.63322 12.185195 57.992743 10.46585 57.530045 10.087278 Z M 53.023993 4.871405 L 53.023993 5.228945 C 53.023993 5.82835 52.566552 6.291048 51.9356 6.291048 L 50.300382 6.291048 C 50.105838 6.291048 50.000679 6.180631 50.000679 6.017635 L 50.000679 4.109004 C 50.000679 3.946008 50.105838 3.809302 50.300382 3.809302 L 51.9356 3.809302 C 52.566552 3.809302 53.023993 4.29829 53.023993 4.871405 Z M 53.023993 14.009699 L 53.023993 14.803648 C 53.023993 15.403053 52.566552 15.897299 51.9356 15.897299 L 50.300382 15.897299 C 50.105838 15.897299 50.000679 15.729045 50.000679 15.597596 L 50.000679 13.199977 C 50.000679 13.031723 50.105838 12.926564 50.300382 12.926564 L 51.9356 12.926564 C 52.566552 12.926564 53.023993 13.384005 53.023993 14.009699 Z M 75.238776 13.631128 L 69.912486 13.631128 L 69.912486 1.380135 C 69.912486 0.207615 68.876673 -0.833456 67.756732 -0.833456 L 64.591454 -0.833456 C 63.418934 -0.833456 62.598696 0.207615 62.598696 1.380135 L 62.598696 19.199283 C 62.598696 20.182517 63.22439 20.997497 64.402168 20.997497 L 75.238776 20.997497 C 76.243042 20.997497 77.06328 20.182517 77.06328 19.199283 L 77.06328 15.545017 C 77.06328 14.530235 76.243042 13.631128 75.238776 13.631128 Z M 89.014571 -1.159449 C 84.534809 -1.159449 80.118142 2.442238 80.118142 6.94829 L 80.118142 13.163171 C 80.118142 17.837477 84.534809 21.465454 89.014571 21.465454 C 93.594234 21.465454 97.905742 17.837477 97.905742 13.163171 L 97.905742 6.94829 C 97.905742 2.442238 93.594234 -1.159449 89.014571 -1.159449 Z M 90.839075 12.889759 C 90.839075 13.825671 89.992547 14.64591 89.014571 14.64591 C 87.999789 14.64591 87.211098 13.825671 87.211098 12.889759 L 87.211098 7.437278 C 87.211098 6.454044 87.999789 5.633806 89.014571 5.633806 C 89.992547 5.633806 90.839075 6.454044 90.839075 7.437278 Z M 90.839075 12.889759 " stroke="rgb(100%, 59.21936%, 0%)" stroke-width="0.443589" stroke-opacity="1" stroke-miterlimit="4"/><g fill="rgb(6.669617%, 66.668701%, 65.098572%)" fill-opacity="1"><g transform="translate(92.546739, 49.692477)"><g><path d="M 11.347656 -9.527344 L 7.722656 -9.527344 C 7.722656 -9.527344 7.296875 -9.527344 7.011719 -9.222656 C 6.769531 -8.976562 6.6875 -8.675781 6.6875 -8.492188 L 6.6875 -7.703125 C 6.6875 -7.152344 7.195312 -6.75 7.742188 -6.75 L 8.269531 -6.75 L 8.269531 -6.101562 C 8.269531 -5.25 7.578125 -4.683594 6.730469 -4.683594 C 5.898438 -4.683594 5.207031 -5.371094 5.207031 -6.203125 L 5.207031 -10.03125 C 5.207031 -10.742188 5.796875 -11.550781 6.730469 -11.550781 C 7.277344 -11.550781 7.761719 -11.25 7.984375 -10.882812 C 8.128906 -10.679688 8.25 -10.660156 8.390625 -10.660156 L 11.957031 -10.660156 C 12.058594 -10.660156 12.382812 -10.679688 12.648438 -10.945312 C 12.949219 -11.226562 12.949219 -11.53125 12.949219 -11.652344 L 12.949219 -11.898438 C 12.949219 -12.179688 12.484375 -13.640625 11.511719 -14.652344 C 10.578125 -15.625 9.203125 -16.457031 7.132812 -16.457031 L 6.058594 -16.457031 C 4.316406 -16.457031 2.632812 -15.585938 1.660156 -14.410156 C 0.789062 -13.335938 0.34375 -12.019531 0.34375 -10.824219 L 0.34375 -5.410156 C 0.34375 -3.933594 0.933594 -2.632812 1.640625 -1.804688 C 3.121094 -0.0625 4.984375 0.261719 5.816406 0.261719 L 7.398438 0.261719 C 9.121094 0.261719 10.722656 -0.585938 11.550781 -1.539062 C 12.464844 -2.574219 13.070312 -3.832031 13.070312 -5.410156 L 13.070312 -7.234375 C 13.070312 -8.652344 12.300781 -9.527344 11.347656 -9.527344 Z M 11.347656 -9.527344 "/></g></g></g><g fill="rgb(6.669617%, 66.668701%, 65.098572%)" fill-opacity="1"><g transform="translate(105.956369, 49.692477)"><g><path d="M 6.953125 -16.457031 C 3.628906 -16.457031 0.34375 -13.78125 0.34375 -10.4375 L 0.34375 -5.816406 C 0.34375 -2.351562 3.628906 0.34375 6.953125 0.34375 C 10.355469 0.34375 13.558594 -2.351562 13.558594 -5.816406 L 13.558594 -10.4375 C 13.558594 -13.78125 10.355469 -16.457031 6.953125 -16.457031 Z M 8.308594 -6.019531 C 8.308594 -5.332031 7.679688 -4.722656 6.953125 -4.722656 C 6.203125 -4.722656 5.613281 -5.332031 5.613281 -6.019531 L 5.613281 -10.074219 C 5.613281 -10.800781 6.203125 -11.410156 6.953125 -11.410156 C 7.679688 -11.410156 8.308594 -10.800781 8.308594 -10.074219 Z M 8.308594 -6.019531 "/></g></g></g><g fill="rgb(6.669617%, 66.668701%, 65.098572%)" fill-opacity="1"><g transform="translate(119.852149, 49.692477)"><g><path d="M 20.734375 -1.398438 C 20.734375 -1.539062 20.734375 -1.460938 18.808594 -14.59375 C 18.644531 -15.464844 17.894531 -16.132812 16.984375 -16.152344 L 13.476562 -16.152344 C 12.585938 -16.152344 11.835938 -15.523438 11.695312 -14.671875 L 10.882812 -9.871094 C 10.863281 -9.6875 10.722656 -9.566406 10.539062 -9.566406 C 10.335938 -9.566406 10.175781 -9.75 10.175781 -9.929688 L 10.175781 -9.910156 L 9.625 -14.550781 C 9.503906 -15.445312 8.734375 -16.132812 7.804688 -16.152344 L 4.296875 -16.152344 C 3.40625 -16.152344 2.675781 -15.523438 2.511719 -14.671875 L 1.519531 -8.613281 L 0.628906 -3.304688 L 0.363281 -1.640625 C 0.34375 -1.539062 0.34375 -1.460938 0.34375 -1.398438 C 0.34375 -0.628906 0.972656 0 1.722656 0 L 4.4375 0 C 5.105469 -0.0195312 5.65625 -0.507812 5.753906 -1.15625 L 6.769531 -6.871094 L 6.871094 -7.457031 L 7.742188 -1.234375 C 7.804688 -0.546875 8.390625 0 9.101562 0 L 12.019531 0 C 12.726562 0 13.316406 -0.546875 13.394531 -1.234375 L 14.1875 -7.054688 L 14.226562 -7.253906 L 14.328125 -6.871094 L 15.300781 -1.15625 C 15.421875 -0.507812 15.96875 -0.0195312 16.640625 0 L 19.335938 0 C 20.125 0 20.734375 -0.628906 20.734375 -1.398438 Z M 20.734375 -1.398438 "/></g></g></g><g fill="rgb(6.669617%, 66.668701%, 65.098572%)" fill-opacity="1"><g transform="translate(140.918643, 49.692477)"><g><path d="M 6.324219 -11.816406 L 10.4375 -11.816406 C 11.023438 -11.816406 11.511719 -12.300781 11.511719 -12.871094 L 11.511719 -15.140625 C 11.511719 -15.726562 11.023438 -16.191406 10.4375 -16.191406 L 2.148438 -16.191406 C 1.316406 -16.191406 0.667969 -15.542969 0.667969 -15.078125 L 0.667969 -1.886719 C 0.667969 -0.6875 1.316406 -0.0390625 2.148438 -0.0390625 L 10.4375 -0.0390625 C 11.023438 -0.0390625 11.511719 -0.507812 11.511719 -1.09375 L 11.511719 -3.363281 C 11.511719 -3.953125 11.023438 -4.457031 10.4375 -4.457031 L 6.324219 -4.457031 C 6.242188 -4.457031 6.179688 -4.519531 6.179688 -4.601562 L 6.179688 -5.898438 C 6.179688 -5.980469 6.242188 -6.039062 6.324219 -6.039062 L 9.300781 -6.039062 C 9.828125 -6.039062 10.273438 -6.464844 10.273438 -7.011719 L 10.273438 -9.222656 C 10.273438 -9.75 9.828125 -10.195312 9.300781 -10.195312 L 6.324219 -10.195312 C 6.242188 -10.195312 6.179688 -10.253906 6.179688 -10.316406 L 6.179688 -11.652344 C 6.179688 -11.714844 6.242188 -11.816406 6.324219 -11.816406 Z M 6.324219 -11.816406 "/></g></g></g><g fill="rgb(6.669617%, 66.668701%, 65.098572%)" fill-opacity="1"><g transform="translate(153.092647, 49.692477)"><g><path d="M 7.09375 -16.941406 C 6.851562 -16.941406 0.34375 -17.289062 0.34375 -11.652344 C 0.34375 -8.128906 2.898438 -6.101562 6.324219 -6.101562 L 7.539062 -6.101562 C 8.207031 -6.101562 8.753906 -5.695312 8.753906 -5.027344 C 8.753906 -4.378906 8.207031 -3.910156 7.640625 -3.910156 C 7.316406 -3.910156 6.769531 -4.011719 6.566406 -4.824219 C 6.503906 -4.984375 6.425781 -5.085938 6.121094 -5.027344 L 0.6875 -4.378906 C 0.386719 -4.316406 0.324219 -4.113281 0.488281 -3.808594 C 1.316406 -1.5 2.796875 0.730469 7.863281 0.730469 C 10.417969 0.730469 13.640625 -0.667969 13.640625 -5.128906 C 13.640625 -10.621094 8.796875 -10.214844 7.09375 -10.214844 C 6.566406 -10.214844 5.554688 -10.335938 5.554688 -11.308594 C 5.554688 -12.097656 6.222656 -12.445312 6.667969 -12.445312 C 6.992188 -12.445312 7.539062 -12.199219 7.742188 -11.652344 C 7.824219 -11.410156 8.003906 -11.308594 8.207031 -11.308594 L 13.171875 -12 C 13.394531 -12.019531 13.558594 -12.242188 13.496094 -12.546875 C 13.273438 -13.640625 12.300781 -16.941406 7.09375 -16.941406 Z M 7.09375 -16.941406 "/></g></g></g><path stroke-linecap="butt" transform="matrix(0.742924, 0, 0, 0.742924, 92.999996, 33.584641)" fill="none" stroke-linejoin="miter" d="M 15.605562 8.177837 L 10.726196 8.177837 C 10.726196 8.177837 10.153081 8.177837 9.763994 8.587956 C 9.438002 8.913948 9.332843 9.324067 9.332843 9.57119 L 9.332843 10.638551 C 9.332843 11.369405 10.011117 11.91623 10.752486 11.91623 L 11.45705 11.91623 L 11.45705 12.789047 C 11.45705 13.935278 10.531653 14.697679 9.385422 14.697679 C 8.265482 14.697679 7.340085 13.772282 7.340085 12.652341 L 7.340085 7.494305 C 7.340085 6.542618 8.128776 5.448968 9.385422 5.448968 C 10.116276 5.448968 10.778776 5.859087 11.078478 6.348075 C 11.262506 6.621488 11.43076 6.653035 11.625304 6.653035 L 16.4258 6.653035 C 16.557248 6.653035 16.998915 6.621488 17.351197 6.269206 C 17.756058 5.890634 17.756058 5.475257 17.756058 5.317519 L 17.756058 4.991527 C 17.756058 4.60244 17.130363 2.635971 15.826395 1.279424 C 14.569748 -0.0350605 12.713697 -1.149743 9.932248 -1.149743 L 8.486315 -1.149743 C 6.136017 -1.149743 3.869847 0.0227768 2.565878 1.605416 C 1.393358 3.051348 0.793954 4.823273 0.793954 6.432202 L 0.793954 13.714444 C 0.793954 15.707202 1.582644 17.458095 2.539589 18.56752 C 4.532347 20.917818 7.040383 21.354227 8.160323 21.354227 L 10.28453 21.354227 C 12.60328 21.354227 14.759034 20.207996 15.878975 18.930318 C 17.104074 17.536964 17.924312 15.843909 17.924312 13.714444 L 17.924312 11.264246 C 17.924312 9.350357 16.88324 8.177837 15.605562 8.177837 Z M 27.735622 -1.149743 C 23.261118 -1.149743 18.844451 2.451944 18.844451 6.952738 L 18.844451 13.167619 C 18.844451 17.836667 23.261118 21.464643 27.735622 21.464643 C 32.315285 21.464643 36.626793 17.836667 36.626793 13.167619 L 36.626793 6.952738 C 36.626793 2.451944 32.315285 -1.149743 27.735622 -1.149743 Z M 29.560126 12.894206 C 29.560126 13.824861 28.713598 14.645099 27.735622 14.645099 C 26.72084 14.645099 25.937408 13.824861 25.937408 12.894206 L 25.937408 7.441726 C 25.937408 6.458491 26.72084 5.643511 27.735622 5.643511 C 28.713598 5.643511 29.560126 6.458491 29.560126 7.441726 Z M 64.988105 19.114346 C 64.988105 18.930318 64.988105 19.035476 62.395942 1.358293 C 62.175109 0.185773 61.170843 -0.713334 59.940485 -0.744882 L 55.224116 -0.744882 C 54.025306 -0.744882 53.015783 0.101646 52.821239 1.253134 L 51.732846 7.715138 C 51.701298 7.957004 51.512013 8.125257 51.270148 8.125257 C 50.996735 8.125257 50.775901 7.878134 50.775901 7.631011 L 50.775901 7.657301 L 50.045048 1.410872 C 49.876794 0.212062 48.835723 -0.713334 47.584334 -0.744882 L 42.862707 -0.744882 C 41.663897 -0.744882 40.685921 0.101646 40.465087 1.253134 L 39.124313 9.402936 L 37.925504 16.548472 L 37.573222 18.788353 C 37.546932 18.930318 37.546932 19.035476 37.546932 19.114346 C 37.546932 20.155417 38.39346 21.001945 39.397726 21.001945 L 43.05725 21.001945 C 43.956357 20.975655 44.692469 20.318413 44.829175 19.445596 L 46.190981 11.747976 L 46.332945 10.964543 L 47.505465 19.335179 C 47.584334 20.260576 48.378282 21.001945 49.329969 21.001945 L 53.257648 21.001945 C 54.214592 21.001945 55.003283 20.260576 55.113699 19.335179 L 56.175803 11.511369 L 56.228382 11.237956 L 56.370346 11.747976 L 57.674315 19.445596 C 57.842569 20.318413 58.57868 20.975655 59.477787 21.001945 L 63.111021 21.001945 C 64.167867 21.001945 64.988105 20.155417 64.988105 19.114346 Z M 73.947629 5.096686 L 79.484237 5.096686 C 80.278185 5.096686 80.935427 4.444702 80.935427 3.677043 L 80.935427 0.622182 C 80.935427 -0.166509 80.278185 -0.797461 79.484237 -0.797461 L 68.326895 -0.797461 C 67.212212 -0.797461 66.339395 0.0753561 66.339395 0.706309 L 66.339395 18.462361 C 66.339395 20.076548 67.212212 20.944108 68.326895 20.944108 L 79.484237 20.944108 C 80.278185 20.944108 80.935427 20.318413 80.935427 19.529723 L 80.935427 16.469603 C 80.935427 15.680913 80.278185 14.997381 79.484237 14.997381 L 73.947629 14.997381 C 73.842471 14.997381 73.758344 14.918512 73.758344 14.808095 L 73.758344 13.06246 C 73.758344 12.952044 73.842471 12.867917 73.947629 12.867917 L 77.959435 12.867917 C 78.674515 12.867917 79.273919 12.294801 79.273919 11.563948 L 79.273919 8.587956 C 79.273919 7.878134 78.674515 7.27873 77.959435 7.27873 L 73.947629 7.27873 C 73.842471 7.27873 73.758344 7.194603 73.758344 7.115734 L 73.758344 5.317519 C 73.758344 5.233392 73.842471 5.096686 73.947629 5.096686 Z M 91.37769 -1.806985 C 91.041182 -1.806985 82.291975 -2.269684 82.291975 5.317519 C 82.291975 10.065436 85.725408 12.789047 90.336618 12.789047 L 91.977095 12.789047 C 92.876202 12.789047 93.607055 13.335873 93.607055 14.23498 C 93.607055 15.107798 92.876202 15.733492 92.108543 15.733492 C 91.677392 15.733492 90.936023 15.596786 90.662611 14.508393 C 90.583742 14.287559 90.468067 14.150853 90.063206 14.23498 L 82.749416 15.107798 C 82.344554 15.191925 82.265685 15.465337 82.476003 15.870198 C 83.595943 18.982897 85.588701 21.979921 92.408246 21.979921 C 95.846936 21.979921 100.184734 20.102838 100.184734 14.098274 C 100.184734 6.705615 93.664893 7.25244 91.37769 7.25244 C 90.662611 7.25244 89.295547 7.089444 89.295547 5.77496 C 89.295547 4.718114 90.194654 4.250158 90.804575 4.250158 C 91.235726 4.250158 91.977095 4.57615 92.250508 5.317519 C 92.355666 5.643511 92.602789 5.77496 92.876202 5.77496 L 99.553782 4.849563 C 99.853484 4.823273 100.074318 4.523571 99.995449 4.11871 C 99.695746 2.635971 98.381262 -1.806985 91.37769 -1.806985 Z M 91.37769 -1.806985 " stroke="rgb(12.548828%, 82.749939%, 59.21936%)" stroke-width="0.443417" stroke-opacity="1" stroke-miterlimit="4"/></svg>